<svg width="73" height="73" viewBox="0 0 73 73" fill="none" xmlns="http://www.w3.org/2000/svg">
<path d="M72.5214 34.9549C72.5189 34.9032 72.5051 34.8526 72.481 34.8068C72.4569 34.7609 72.4231 34.7209 72.3819 34.6894C72.3407 34.658 72.2931 34.636 72.2425 34.6249C72.1919 34.6137 72.1395 34.6138 72.089 34.6251C70.6753 34.9049 69.2147 34.8333 67.8352 34.4166C66.32 33.9568 64.9556 33.0996 63.8839 31.9341C62.8121 30.7686 62.0721 29.3373 61.7407 27.7889C61.6292 27.2681 61.3423 26.8013 60.9279 26.4666C60.5136 26.1319 59.9969 25.9495 59.4643 25.95H59.4181C57.2219 25.9511 55.0643 25.3725 53.1633 24.2726C51.2624 23.1726 49.6855 21.5904 48.592 19.6857C47.4985 17.781 46.9272 15.6215 46.9358 13.4252C46.9444 11.229 47.5326 9.07397 48.6409 7.17792C49.3784 5.92579 50.3259 4.81001 51.4421 3.87947C51.4873 3.84061 51.5221 3.79099 51.5431 3.73516C51.5642 3.67933 51.5709 3.61911 51.5625 3.56003C51.5542 3.50096 51.5311 3.44493 51.4954 3.39712C51.4597 3.3493 51.4126 3.31124 51.3583 3.28644C50.0251 2.67262 48.6553 2.1418 47.2566 1.69703C47.1913 1.67687 47.1217 1.6753 47.0556 1.69251C46.9895 1.70972 46.9295 1.74502 46.8823 1.79445C45.8076 2.95033 44.8957 4.2475 44.1718 5.65004C42.9081 8.11561 42.2609 10.8508 42.2858 13.6213C42.3108 16.3917 43.0069 19.1148 44.3148 21.5573C45.6226 23.9998 47.5031 26.0887 49.7951 27.6452C52.0872 29.2017 54.7224 30.1794 57.475 30.4943C57.5389 30.5021 57.5994 30.5272 57.6501 30.567C57.7007 30.6068 57.7394 30.6597 57.7621 30.7199C58.7273 33.2837 60.4511 35.4922 62.7036 37.0513C64.9561 38.6104 67.6303 39.4458 70.3697 39.4463C70.9582 39.4459 71.5462 39.4082 72.13 39.3335C72.2113 39.3222 72.2864 39.2835 72.343 39.2239C72.3995 39.1643 72.4341 39.0872 72.441 39.0054C72.5105 38.103 72.5458 37.1915 72.547 36.2709C72.547 35.83 72.5384 35.3913 72.5214 34.9549Z" fill="white"/>
<path d="M60.7461 41.3193C58.3312 53.0416 47.6822 61.7953 35.1293 61.2313C22.0979 60.6468 11.6215 49.9329 11.2968 36.8912C10.955 22.8326 22.2927 11.2881 36.2744 11.2881C36.7649 11.2881 37.2485 11.3035 37.7322 11.3308C37.6861 11.8145 37.6536 12.305 37.6382 12.7989C37.1825 12.7693 36.7187 12.755 36.247 12.7562C24.0753 12.7715 13.792 22.2328 12.8332 34.367C11.7377 48.1948 22.679 59.7906 36.2744 59.7906C47.8292 59.7906 57.4665 51.4078 59.425 40.4067C59.8506 40.7314 60.2915 41.0373 60.7461 41.3193Z" fill="white"/>
<path d="M71.6857 44.0522C71.6876 44.0521 71.6895 44.0525 71.6912 44.0533C71.6929 44.0541 71.6944 44.0553 71.6956 44.0568C71.6968 44.0583 71.6976 44.0601 71.6979 44.062C71.6983 44.0638 71.6982 44.0658 71.6976 44.0676C68.1257 60.3377 53.5972 72.547 36.2744 72.547C16.2718 72.547 0 56.2736 0 36.271C0 16.2684 16.2718 1.52236e-05 36.2744 1.52236e-05C38.1704 -0.00172485 40.0635 0.145707 41.9364 0.440947C41.9385 0.441162 41.9405 0.441916 41.9422 0.443135C41.9439 0.444354 41.9452 0.445996 41.9461 0.447897C41.9469 0.449798 41.9473 0.451892 41.9471 0.453971C41.9469 0.45605 41.9462 0.458041 41.945 0.459747C40.9407 1.80477 40.0954 3.26144 39.4258 4.80071C39.424 4.80176 39.4219 4.80231 39.4198 4.80231C39.4177 4.80231 39.4157 4.80176 39.4139 4.80071C38.3782 4.70158 37.3323 4.64689 36.2744 4.64689C19.8249 4.65373 6.27217 17.275 4.78531 33.3417C2.95322 53.2246 20.1205 69.9903 39.9539 67.678C53.1443 66.1398 63.8805 56.4479 66.9841 43.789C66.9849 43.786 66.9866 43.7834 66.9891 43.7815C66.9916 43.7796 66.9947 43.7787 66.9978 43.7788C68.1091 43.9921 69.2381 44.0997 70.3697 44.1001C70.8123 44.1018 71.2499 44.0932 71.6857 44.0522Z" fill="white"/>
</svg>
